# xmcd
#
# Track frame offsets: 
#        150
#        14205
#        28042
#        42492
#        55822
#        69517
#        83120
#        98352
#        113712
#        127687
#        142737
#        156930
#        171600
#        185657
#        199832
#        214737
#
# Disc length: 3052 seconds
#
# Revision: 3
# Processed by: cddbd v1.5.2PL0 Copyright (c) Steve Scherf et al.
# Submitted via: ExactAudioCopy v0.99pb4
#
DISCID=de0bea10
DTITLE=Blind Willie Johnson - The Complete Blind Willie Johnson [disc 
DTITLE=2]
DYEAR=1993
DGENRE=Gospel
TTITLE0=You'll Need Somebody on Your Bond
TTITLE1=When the War Was On
TTITLE2=Praise God I'm Satisfied
TTITLE3=Take Your Burden to the Lord and Leave It There
TTITLE4=Take Your Stand
TTITLE5=God Moves on the Water
TTITLE6=Can't Nobody Hide from God
TTITLE7=If It Had Not Been for Jesus
TTITLE8=Go to Me with That Land
TTITLE9=The Rain Don't Fall on Me
TTITLE10=Trouble Will Soon Be Over
TTITLE11=The Soul of a Man
TTITLE12=Everybody Ought to Treat a Stranger Right
TTITLE13=Church, I'm Fully Saved To-Day
TTITLE14=John the Revelator
TTITLE15=You're Gonna Need Somebody on Your Bond
EXTD=
EXTT0=
EXTT1=
EXTT2=
EXTT3=
EXTT4=
EXTT5=
EXTT6=
EXTT7=
EXTT8=
EXTT9=
EXTT10=
EXTT11=
EXTT12=
EXTT13=
EXTT14=
EXTT15=
PLAYORDER=
